<svg width="60" height="60" viewBox="0 0 60 60" fill="none" xmlns="http://www.w3.org/2000/svg">
<rect width="60" height="60" rx="20" fill="url(#paint0_linear_75_193)"/>
<path d="M42.8085 28.8189C42.3931 27.7791 41.7957 26.808 41.0483 25.9587V21.3923C41.0483 20.6327 40.7066 19.9271 40.1093 19.4551C39.5217 18.9917 38.7707 18.8246 38.043 18.9954C35.7998 19.5301 34.1171 20.8011 33.2161 22.6166H26.6241C23.4516 22.6166 20.6036 24.0399 18.7341 26.266C17.2591 26.0509 17.4373 23.8433 18.9221 23.8457C20.5286 23.8396 20.5299 21.3935 18.9221 21.3874C15.0072 21.3751 13.8469 26.8031 17.3635 28.4047C15.2014 32.8543 17.0821 38.5847 21.3805 40.957V41.0541C21.3829 45.173 27.2067 46.1158 28.5453 42.2832H31.4252C32.7638 46.1182 38.5876 45.1705 38.59 41.0541V40.941C40.5075 39.831 41.996 38.1139 42.8085 36.0809C43.8177 35.8658 44.7358 35.0385 44.7358 33.6791V31.2207C44.7358 29.8613 43.8164 29.034 42.8085 28.8189ZM37.3608 31.2207C35.7531 31.2134 35.7531 28.7698 37.3608 28.7624C38.9686 28.7698 38.9686 31.2134 37.3608 31.2207ZM22.6748 20.7876C21.984 13.9153 32.1885 13.2503 32.4442 20.1582H26.6253C25.2474 20.1582 23.9211 20.3856 22.6748 20.7876Z" fill="white"/>
<defs>
<linearGradient id="paint0_linear_75_193" x1="-1.23619e-08" y1="30" x2="61.4857" y2="31.9136" gradientUnits="userSpaceOnUse">
<stop stop-color="#1670FA"/>
<stop offset="1" stop-color="#0D65FB"/>
</linearGradient>
</defs>
</svg>
