<svg width="60" height="60" viewBox="0 0 60 60" fill="none" xmlns="http://www.w3.org/2000/svg">
<rect width="60" height="60" rx="20" fill="url(#paint0_linear_75_200)"/>
<g clip-path="url(#clip0_75_200)">
<path d="M26.25 20C26.25 17.2387 30.4475 15 35.625 15C40.8025 15 45 17.2387 45 20C45 22.7613 40.8025 25 35.625 25C30.4475 25 26.25 22.7613 26.25 20ZM35.625 27.5C34.3412 27.5 33.1238 27.3563 32.0112 27.1063C30.3125 25.8325 27.5288 25 24.375 25C19.1975 25 15 27.2387 15 30C15 32.7612 19.1975 35 24.375 35C29.5525 35 33.75 32.7612 33.75 30C33.75 29.9637 33.7412 29.9287 33.74 29.8925H33.75V32.5C33.75 35.2612 29.5525 37.5 24.375 37.5C19.1975 37.5 15 35.2612 15 32.5V35C15 37.7612 19.1975 40 24.375 40C29.5525 40 33.75 37.7612 33.75 35V37.5C33.75 40.2612 29.5525 42.5 24.375 42.5C19.1975 42.5 15 40.2612 15 37.5V40C15 42.7612 19.1975 45 24.375 45C29.5525 45 33.75 42.7612 33.75 40V39.9C34.3563 39.965 34.9825 40 35.625 40C40.8025 40 45 37.7612 45 35V32.5C45 35.1488 41.135 37.3112 36.25 37.4837V34.9838C41.135 34.8113 45 32.65 45 30V27.5C45 30.1488 41.135 32.3113 36.25 32.4838V29.9838C41.135 29.8113 45 27.65 45 25V22.5C45 25.2613 40.8025 27.5 35.625 27.5Z" fill="white"/>
</g>
<defs>
<linearGradient id="paint0_linear_75_200" x1="-1.23619e-08" y1="30" x2="61.4857" y2="31.9136" gradientUnits="userSpaceOnUse">
<stop stop-color="#1670FA"/>
<stop offset="1" stop-color="#0D65FB"/>
</linearGradient>
<clipPath id="clip0_75_200">
<rect width="30" height="30" fill="white" transform="translate(15 15)"/>
</clipPath>
</defs>
</svg>
