<svg width="60" height="60" viewBox="0 0 60 60" fill="none" xmlns="http://www.w3.org/2000/svg">
<rect width="60" height="60" rx="20" fill="url(#paint0_linear_75_178)"/>
<g clip-path="url(#clip0_75_178)">
<path d="M36.4356 29.7883C36.3618 29.4765 36.1328 29.2259 35.8292 29.125L31.3014 27.6155L34.517 21.1844C34.7188 20.7798 34.5981 20.2877 34.2313 20.0227C33.8627 19.7587 33.358 19.7983 33.0389 20.1191L23.8104 29.3476C23.5842 29.5739 23.4914 29.901 23.5644 30.2119C23.6383 30.5237 23.8672 30.7743 24.1709 30.8752L28.6986 32.3847L25.4831 38.8158C25.2812 39.2205 25.402 39.7125 25.7688 39.9775C26.1361 40.2408 26.6398 40.2023 26.9611 39.8811L36.1896 30.6526C36.4158 30.4264 36.5087 30.0993 36.4356 29.7883Z" fill="white"/>
<path d="M30 14.25C25.3162 14.25 20.8921 16.4283 17.9414 19.9427V18.9258C17.9414 18.4157 17.5286 18.0029 17.0186 18.0029C16.5085 18.0029 16.0957 18.4157 16.0957 18.9258V22.8461C16.0957 23.7268 17.2333 23.8529 17.0186 23.769C17.0375 23.769 17.0564 23.768 17.0753 23.7672L20.7667 23.5383C21.2759 23.5067 21.6626 23.0687 21.631 22.5604C21.5995 22.0521 21.1552 21.6691 20.6532 21.6961L18.7832 21.8124C21.3734 18.2891 25.5642 16.0957 30 16.0957C37.6333 16.0957 43.9043 22.3667 43.9043 30C43.9043 30.5101 44.3171 30.9229 44.8271 30.9229C45.3372 30.9229 45.75 30.5101 45.75 30C45.75 21.3492 38.6508 14.25 30 14.25Z" fill="white"/>
<path d="M42.9247 36.2328L39.2333 36.4617C38.7241 36.4933 38.3374 36.9313 38.369 37.4396C38.4005 37.9479 38.8548 38.3354 39.3468 38.3039L41.2168 38.1876C38.6266 41.7109 34.4358 43.9043 30 43.9043C22.3667 43.9043 16.0957 37.6333 16.0957 30C16.0957 29.4899 15.6829 29.0771 15.1729 29.0771C14.6628 29.0771 14.25 29.4899 14.25 30C14.25 38.6508 21.3492 45.75 30 45.75C34.6838 45.75 39.1079 43.5717 42.0586 40.0573V41.0742C42.0586 41.5843 42.4714 41.9971 42.9814 41.9971C43.4915 41.9971 43.9043 41.5843 43.9043 41.0742V37.1539C43.9043 36.6469 43.4182 36.205 42.9247 36.2328Z" fill="white"/>
</g>
<defs>
<linearGradient id="paint0_linear_75_178" x1="-1.23619e-08" y1="30" x2="61.4857" y2="31.9136" gradientUnits="userSpaceOnUse">
<stop stop-color="#1670FA"/>
<stop offset="1" stop-color="#0D65FB"/>
</linearGradient>
<clipPath id="clip0_75_178">
<rect width="31.5" height="31.5" fill="white" transform="translate(14.25 14.25)"/>
</clipPath>
</defs>
</svg>
