<svg width="23" height="22" viewBox="0 0 23 22" fill="none" xmlns="http://www.w3.org/2000/svg">
<g clip-path="url(#clip0_39_36)">
<path d="M21.3202 3.73725C21.0624 3.42782 20.7396 3.17895 20.3747 3.00833C20.0099 2.83771 19.6119 2.74951 19.2092 2.75H4.3885L4.35 2.42825C4.27121 1.75947 3.94977 1.14284 3.44662 0.695271C2.94346 0.247705 2.29358 0.000313311 1.62017 0L1.41667 0C1.17355 0 0.940394 0.0965771 0.768485 0.268485C0.596577 0.440394 0.5 0.673552 0.5 0.916667C0.5 1.15978 0.596577 1.39294 0.768485 1.56485C0.940394 1.73676 1.17355 1.83333 1.41667 1.83333H1.62017C1.84469 1.83336 2.06139 1.91579 2.22917 2.06499C2.39696 2.21419 2.50415 2.41977 2.53042 2.64275L3.79175 13.3678C3.9227 14.4831 4.4586 15.5116 5.29775 16.258C6.13689 17.0044 7.22087 17.4167 8.34392 17.4167H17.9167C18.1598 17.4167 18.3929 17.3201 18.5648 17.1482C18.7368 16.9763 18.8333 16.7431 18.8333 16.5C18.8333 16.2569 18.7368 16.0237 18.5648 15.8518C18.3929 15.6799 18.1598 15.5833 17.9167 15.5833H8.34392C7.77655 15.5817 7.22357 15.4047 6.76077 15.0765C6.29798 14.7483 5.94804 14.2849 5.75892 13.75H16.6856C17.7602 13.7501 18.8006 13.3725 19.6252 12.6834C20.4497 11.9943 21.0059 11.0373 21.1965 9.97975L21.9161 5.98858C21.9879 5.59259 21.9718 5.18565 21.8688 4.79658C21.7658 4.40752 21.5786 4.04587 21.3202 3.73725Z" fill="white"/>
<path d="M6.91665 22C7.92917 22 8.74998 21.1792 8.74998 20.1667C8.74998 19.1542 7.92917 18.3334 6.91665 18.3334C5.90412 18.3334 5.08331 19.1542 5.08331 20.1667C5.08331 21.1792 5.90412 22 6.91665 22Z" fill="white"/>
<path d="M16.0833 22C17.0959 22 17.9167 21.1792 17.9167 20.1667C17.9167 19.1542 17.0959 18.3334 16.0833 18.3334C15.0708 18.3334 14.25 19.1542 14.25 20.1667C14.25 21.1792 15.0708 22 16.0833 22Z" fill="white"/>
</g>
<defs>
<clipPath id="clip0_39_36">
<rect width="22" height="22" fill="white" transform="translate(0.5)"/>
</clipPath>
</defs>
</svg>
