<svg width="23" height="22" viewBox="0 0 23 22" fill="none" xmlns="http://www.w3.org/2000/svg">
<g clip-path="url(#clip0_1_25)">
<path d="M11.5 15.5833C8.97 15.5833 6.91667 13.53 6.91667 11C6.91667 8.47 8.97 6.41667 11.5 6.41667C14.03 6.41667 16.0833 8.47 16.0833 11C16.0833 13.53 14.03 15.5833 11.5 15.5833ZM12.4167 3.66667V0.916667C12.4167 0.4125 12.0042 0 11.5 0C10.9958 0 10.5833 0.4125 10.5833 0.916667V3.66667C10.5833 4.17083 10.9958 4.58333 11.5 4.58333C12.0042 4.58333 12.4167 4.17083 12.4167 3.66667ZM12.4167 21.0833V18.3333C12.4167 17.8292 12.0042 17.4167 11.5 17.4167C10.9958 17.4167 10.5833 17.8292 10.5833 18.3333V21.0833C10.5833 21.5875 10.9958 22 11.5 22C12.0042 22 12.4167 21.5875 12.4167 21.0833ZM5.08333 11C5.08333 10.4958 4.67083 10.0833 4.16667 10.0833H1.41667C0.9125 10.0833 0.5 10.4958 0.5 11C0.5 11.5042 0.9125 11.9167 1.41667 11.9167H4.16667C4.67083 11.9167 5.08333 11.5042 5.08333 11ZM22.5 11C22.5 10.4958 22.0875 10.0833 21.5833 10.0833H18.8333C18.3292 10.0833 17.9167 10.4958 17.9167 11C17.9167 11.5042 18.3292 11.9167 18.8333 11.9167H21.5833C22.0875 11.9167 22.5 11.5042 22.5 11ZM6.65083 6.15083C7.00833 5.79333 7.00833 5.21583 6.65083 4.85833L4.8175 3.025C4.46 2.6675 3.8825 2.6675 3.525 3.025C3.1675 3.3825 3.1675 3.96 3.525 4.3175L5.35833 6.15083C5.54167 6.33417 5.77083 6.41667 6.00917 6.41667C6.2475 6.41667 6.47667 6.325 6.66 6.15083H6.65083ZM19.4842 18.9842C19.8417 18.6267 19.8417 18.0492 19.4842 17.6917L17.6508 15.8583C17.2933 15.5008 16.7158 15.5008 16.3583 15.8583C16.0008 16.2158 16.0008 16.7933 16.3583 17.1508L18.1917 18.9842C18.375 19.1675 18.6042 19.25 18.8425 19.25C19.0808 19.25 19.31 19.1583 19.4933 18.9842H19.4842ZM4.8175 18.9842L6.65083 17.1508C7.00833 16.7933 7.00833 16.2158 6.65083 15.8583C6.29333 15.5008 5.71583 15.5008 5.35833 15.8583L3.525 17.6917C3.1675 18.0492 3.1675 18.6267 3.525 18.9842C3.70833 19.1675 3.9375 19.25 4.17583 19.25C4.41417 19.25 4.64333 19.1583 4.82667 18.9842H4.8175ZM17.6508 6.15083L19.4842 4.3175C19.8417 3.96 19.8417 3.3825 19.4842 3.025C19.1267 2.6675 18.5492 2.6675 18.1917 3.025L16.3583 4.85833C16.0008 5.21583 16.0008 5.79333 16.3583 6.15083C16.5417 6.33417 16.7708 6.41667 17.0092 6.41667C17.2475 6.41667 17.4767 6.325 17.66 6.15083H17.6508Z" fill="white"/>
</g>
<defs>
<clipPath id="clip0_1_25">
<rect width="22" height="22" fill="white" transform="translate(0.5)"/>
</clipPath>
</defs>
</svg>
