<svg width="18" height="18" viewBox="0 0 18 18" fill="none" xmlns="http://www.w3.org/2000/svg">
<g clip-path="url(#clip0_46_519)">
<path d="M10.6358 0.155445C10.5276 0.135543 10.4164 0.139663 10.3101 0.167514C10.2037 0.195365 10.1047 0.246266 10.0202 0.316612C9.93571 0.386957 9.8677 0.475025 9.821 0.574579C9.77431 0.674132 9.75008 0.782736 9.75003 0.892695V3.05195C8.84194 2.93147 7.91831 3.02174 7.05074 3.31576C6.18316 3.60978 5.39495 4.09964 4.74721 4.74738C4.09948 5.39512 3.60961 6.18333 3.31559 7.05091C3.02157 7.91848 2.9313 8.84211 3.05178 9.75019H0.892527C0.782568 9.75025 0.673965 9.77448 0.574411 9.82117C0.474857 9.86787 0.386789 9.93588 0.316444 10.0204C0.246098 10.1049 0.195197 10.2039 0.167346 10.3102C0.139495 10.4166 0.135375 10.5278 0.155277 10.6359C0.452285 12.2496 1.18475 13.7513 2.27348 14.9788C3.36221 16.2063 4.76577 17.1128 6.33241 17.6003C7.89905 18.0878 9.56915 18.1378 11.1621 17.7448C12.7551 17.3519 14.2104 16.5309 15.3706 15.3707C16.5307 14.2105 17.3517 12.7553 17.7446 11.1623C18.1376 9.56931 18.0876 7.89921 17.6001 6.33258C17.1126 4.76594 16.2061 3.36238 14.9786 2.27365C13.7512 1.18492 12.2494 0.452453 10.6358 0.155445ZM9.00003 10.5002C8.73778 10.4995 8.48034 10.4298 8.25353 10.2981C8.02671 10.1665 7.83851 9.97753 7.70778 9.75019H6.00003C5.80112 9.75019 5.61035 9.67118 5.4697 9.53053C5.32905 9.38987 5.25003 9.19911 5.25003 9.00019C5.25003 8.80128 5.32905 8.61052 5.4697 8.46986C5.61035 8.32921 5.80112 8.25019 6.00003 8.25019H7.70778C7.83849 8.02551 8.02535 7.83866 8.25003 7.70795V5.2502C8.25003 5.05128 8.32905 4.86052 8.4697 4.71987C8.61035 4.57921 8.80112 4.5002 9.00003 4.5002C9.19894 4.5002 9.3897 4.57921 9.53036 4.71987C9.67101 4.86052 9.75003 5.05128 9.75003 5.2502V7.70795C10.0361 7.87229 10.2598 8.12661 10.3863 8.43132C10.5128 8.73603 10.535 9.07402 10.4494 9.39264C10.3638 9.71127 10.1753 9.99266 9.91312 10.193C9.65098 10.3933 9.32995 10.5013 9.00003 10.5002ZM7.47903 0.0751953C7.62736 0.0751953 7.77237 0.119182 7.8957 0.201593C8.01904 0.284004 8.11517 0.401138 8.17194 0.538183C8.2287 0.675227 8.24356 0.826027 8.21462 0.971513C8.18568 1.117 8.11425 1.25064 8.00936 1.35553C7.90447 1.46041 7.77083 1.53185 7.62535 1.56078C7.47986 1.58972 7.32906 1.57487 7.19201 1.5181C7.05497 1.46134 6.93784 1.36521 6.85543 1.24187C6.77301 1.11854 6.72903 0.973531 6.72903 0.825195C6.72903 0.626283 6.80805 0.435518 6.9487 0.294865C7.08935 0.154213 7.28012 0.0751953 7.47903 0.0751953ZM4.40403 1.3922C4.55236 1.3922 4.69737 1.43618 4.82071 1.51859C4.94404 1.601 5.04017 1.71814 5.09694 1.85518C5.1537 1.99223 5.16856 2.14303 5.13962 2.28851C5.11068 2.434 5.03925 2.56764 4.93436 2.67253C4.82947 2.77741 4.69583 2.84885 4.55035 2.87778C4.40486 2.90672 4.25406 2.89187 4.11701 2.8351C3.97997 2.77834 3.86284 2.68221 3.78043 2.55887C3.69801 2.43554 3.65403 2.29053 3.65403 2.1422C3.65363 1.94341 3.73216 1.7526 3.87237 1.61169C4.01258 1.47078 4.20299 1.39129 4.40178 1.3907L4.40403 1.3922ZM2.08428 3.63095C2.23261 3.63095 2.37762 3.67493 2.50096 3.75734C2.62429 3.83975 2.72042 3.95689 2.77719 4.09393C2.83395 4.23098 2.84881 4.38178 2.81987 4.52726C2.79093 4.67275 2.7195 4.80639 2.61461 4.91128C2.50972 5.01616 2.37608 5.0876 2.2306 5.11653C2.08511 5.14547 1.93431 5.13062 1.79726 5.07386C1.66022 5.01709 1.54309 4.92096 1.46068 4.79762C1.37826 4.67429 1.33428 4.52928 1.33428 4.38095C1.33428 4.18203 1.41329 3.99127 1.55395 3.85062C1.6946 3.70996 1.88537 3.63095 2.08428 3.63095ZM0.884277 6.7562C1.03261 6.7562 1.17762 6.80018 1.30096 6.88259C1.42429 6.965 1.52042 7.08214 1.57719 7.21918C1.63395 7.35623 1.64881 7.50703 1.61987 7.65251C1.59093 7.798 1.5195 7.93164 1.41461 8.03653C1.30972 8.14141 1.17608 8.21285 1.0306 8.24178C0.885109 8.27072 0.734309 8.25587 0.597265 8.19911C0.46022 8.14234 0.343086 8.04621 0.260675 7.92287C0.178264 7.79954 0.134277 7.65453 0.134277 7.5062C0.134277 7.30754 0.213089 7.117 0.353417 6.97639C0.493745 6.83579 0.684125 6.75659 0.882777 6.7562H0.884277Z" fill="white"/>
</g>
<defs>
<clipPath id="clip0_46_519">
<rect width="18" height="18" fill="white"/>
</clipPath>
</defs>
</svg>
