<svg width="76" height="79" viewBox="0 0 76 79" fill="none" xmlns="http://www.w3.org/2000/svg">
<circle cx="38.8909" cy="39.3967" r="27.5" transform="rotate(-135 38.8909 39.3967)" fill="#F95801"/>
<g clip-path="url(#clip0_81_685)">
<path d="M45.3039 45.5298C45.8238 45.0099 46.3286 44.4865 46.8183 43.9618C49.3533 41.2415 49.3533 36.9933 46.8183 34.2729C46.3292 33.7477 45.8238 33.2249 45.3039 32.7049C44.784 32.185 44.2605 31.6802 43.7359 31.1906C41.0155 28.6556 36.7674 28.6556 34.047 31.1906C33.5218 31.6796 32.9989 32.185 32.479 32.7049C31.9591 33.2249 31.4543 33.7483 30.9646 34.2729C28.429 36.9939 28.429 41.2421 30.9646 43.963C31.4537 44.4882 31.9591 45.0111 32.479 45.531C32.9989 46.051 33.5224 46.5557 34.047 47.0454C36.7668 49.5798 41.0149 49.5798 43.7353 47.0436C44.2605 46.5546 44.784 46.0498 45.3039 45.5298ZM38.6933 44.3052C38.2159 44.2871 37.8428 43.8849 37.8621 43.4075L38.1214 36.5975L35.7922 38.4943C35.6226 38.6324 35.4156 38.696 35.2128 38.6878C34.9732 38.6791 34.7377 38.5706 34.5745 38.369C34.2732 37.9988 34.3285 37.4538 34.6998 37.1524L38.2986 34.2251C38.5137 34.0229 38.7941 33.9174 39.0891 33.929C39.3823 33.9401 39.6539 34.066 39.8113 34.2409L43.2195 37.4777C43.5669 37.8065 43.5803 38.355 43.2521 38.7006C43.0732 38.8889 42.8307 38.9787 42.5911 38.9699C42.3888 38.9623 42.1877 38.8837 42.0286 38.7327L39.8515 36.6628L39.5915 43.4734C39.5734 43.9508 39.1707 44.3232 38.6933 44.3052Z" fill="white"/>
</g>
<defs>
<clipPath id="clip0_81_685">
<rect width="19.7842" height="19.7842" fill="white" transform="translate(38.8909 53.1064) rotate(-135)"/>
</clipPath>
</defs>
</svg>
