<?xml version="1.0" encoding="UTF-8"?>
<svg id="Layer_1" data-name="Layer 1" xmlns="http://www.w3.org/2000/svg" viewBox="0 0 557.24 276.31">
  <defs>
    <style>
      .cls-1 {
        fill: #f95801;
      }
    </style>
  </defs>
  <g>
    <path d="M482.29,75.69c32.42-3.95,54.5,34.23,36.09,60.9-16.14,23.4-52.12,21.96-65.74-3.18-13.08-24.15,2.42-54.41,29.65-57.73ZM480.95,87.46c-27.82,4.73-28.21,49.62,0,54.41,42.63,7.25,42.63-61.67,0-54.41Z"/>
    <path class="cls-1" d="M483.62,100.01c-14.63,2.49-14.84,26.1,0,28.62,22.43,3.81,22.43-32.44,0-28.62Z"/>
    <path d="M309.14,117.22l-49.89,13.18c4.73,12.57,28.36,19.05,43.36,1.93l3.74,10.93c-24.82,22.92-66.32,6.64-58.8-29.13,7.03-33.44,59.32-33.12,61.59,3.08ZM296.04,110.72c-6.34-19.35-39.67-11.54-38.1,9.18l38.1-9.18Z"/>
    <path d="M179.11,117.27l-49.93,13.14c7.21,19.86,31.71,15.03,43.34,1.3l2.78,11.18c-23.92,24.16-66.47,6.01-58.15-29.07,7.99-33.66,57.76-32.18,61.95,3.46ZM126.55,119.9l39.38-11.13c-12.18-16.33-37.46-8.96-39.38,11.13Z"/>
    <path d="M186.98,89.11l10.5-5.9.03,11.8c9.58-7.67,26.05-7.54,34.85,1.26,1.96,1.96,6.54,6.45,7.18,13.81v42.6h-10.51v-42.6c-3.64-16.29-30.79-10.96-31.53,1.31-.52,8.54,0,41.29,0,41.29h-10.51v-63.57Z"/>
    <path d="M32.42,119.12c.61,5.98,3.55,15.31,9.04,19.56,7.17,2.15,16.06,2.22,21.76,1.73-.03-.04-.05-.09-.08-.13-12.93-1.73-18.08-13.74-18.89-21.16-3.87-35.15,41.01-44.93,52.61-12.52l11.61.21c-10.04-48.15-81.07-36.83-76.05,12.32Z"/>
    <path d="M317.06,88.45l10.5-5.24.03,11.8c7.03-4.28,14.01-6.15,22.33-5.25v10.5c-8.19-2.56-22.34,5-22.34,13.76v38.66h-10.51v-64.22Z"/>
    <path class="cls-1" d="M73.61,119.9h34.87v22.07l-6.6-6.6s-16.14,23.07-49.99,10.61c29.19,0,40.7-13.9,41.29-19.07l-18.69-3.59-.88-3.42Z"/>
    <path d="M361.2,119.12c.61,5.98,3.55,15.31,9.04,19.56,7.17,2.15,16.06,2.22,21.76,1.73-.03-.04-.05-.09-.08-.13-12.93-1.73-18.08-13.74-18.89-21.16-3.87-35.15,41.01-44.93,52.61-12.52l11.61.21c-10.04-48.15-81.07-36.83-76.05,12.32Z"/>
    <path d="M402.39,119.9h34.87v22.07l-6.6-6.6s-16.14,23.07-49.99,10.61c29.2,0,40.7-13.9,41.29-19.07l-18.69-3.59-.87-3.42Z"/>
  </g>
  <g>
    <rect class="cls-1" x="31.2" y="189.85" width="131.43" height="1.26"/>
    <rect class="cls-1" x="394.62" y="189.85" width="131.43" height="1.26"/>
  </g>
  <g>
    <path d="M195.72,197.33v-.8l2.66-2.52c1.63,2.03,4.33,3.35,7.13,3.35,3.12,0,5.19-.92,5.19-2.66,0-1.63-1.78-2.35-6.07-2.78-5.27-.54-8.31-2.26-8.31-6.02,0-3.55,3.41-5.84,9.05-5.84,4.44,0,6.96,1.23,8.97,3.07v.8l-2.29,2.38c-1.83-1.78-4.07-2.78-6.68-2.78-2.89,0-4.96.8-4.96,2.32s1.75,2.21,6.25,2.72c5.44.6,8.28,2.15,8.28,5.96,0,4.04-3.67,6.39-9.48,6.39-4.56,0-7.71-1.49-9.74-3.58Z"/>
    <path d="M230.79,190.48c0-6.36,4.41-10.43,11.55-10.43s11.52,4.07,11.52,10.43-4.38,10.43-11.52,10.43-11.55-4.07-11.55-10.43ZM249.38,190.48c0-4.33-2.72-6.73-7.05-6.73s-7.05,2.41-7.05,6.73,2.72,6.73,7.05,6.73,7.05-2.41,7.05-6.73Z"/>
    <path d="M275.05,196.81h12.95l-1.23,3.7h-16.1v-20.06h4.38v16.36Z"/>
    <path d="M317.74,180.45l8.6,19.25v.8h-4.56l-1.92-4.61h-10.49l-1.92,4.61h-4.53v-.8l8.57-19.25h6.25ZM310.72,192.66h7.79l-3.5-8.45h-.8l-3.5,8.45Z"/>
    <path d="M342.18,200.51v-20.06h11.4c5.27,0,7.85,2.15,7.85,5.87s-2.78,5.64-6.68,5.64h-.34v.8l2.26.49,4.84,6.45v.8h-4.38l-6.19-8.54h-4.38v8.54h-4.38ZM346.57,188.68h7.56c1.98,0,2.98-.8,2.98-2.32s-1-2.29-2.98-2.29h-7.56v4.61Z"/>
  </g>
</svg>