<svg width="60" height="60" viewBox="0 0 60 60" fill="none" xmlns="http://www.w3.org/2000/svg">
<circle cx="30" cy="30" r="30" fill="url(#paint0_radial_81_431)" fill-opacity="0.38"/>
<circle cx="30" cy="30" r="25" fill="#F95801"/>
<g clip-path="url(#clip0_81_431)">
<path d="M30 34.0002C29.448 34.0002 29 33.5532 29 33.0002V26.7872L28.707 27.0802C28.317 27.4712 27.684 27.4712 27.293 27.0802C26.902 26.6892 26.902 26.0572 27.293 25.6662L28.535 24.4242C28.95 24.0102 29.568 23.8882 30.109 24.1122C30.651 24.3372 31 24.8602 31 25.4462V33.0012C31 33.5542 30.552 34.0002 30 34.0002ZM41.734 33.4342C42.242 32.8612 41.988 31.9592 41.262 31.7172C40.76 31.5492 39.868 31.3812 38.971 31.2662C39.96 31.1212 41.07 30.6742 41.552 29.4692C42.165 27.9342 42.028 26.0742 41.848 24.9262C41.759 24.3582 41.122 24.0622 40.629 24.3572C40.157 24.6392 39.568 25.0552 38.974 25.6182C39.667 24.5542 40.367 22.9902 39.692 21.6312C39.072 20.3842 37.905 18.8132 36.959 18.1962C36.234 17.7222 35.257 18.1562 35.141 19.0142C34.94 20.4952 34.946 23.3302 36.123 25.7792C36.967 30.7222 35.508 33.7992 34.096 35.5252C32.842 37.0572 31.302 37.9282 30.034 38.2472C28.833 37.9272 27.345 37.0522 26.083 35.5112C24.092 33.0782 23.299 29.7272 23.781 25.9792C25.058 23.4872 25.068 20.5362 24.861 19.0142C24.745 18.1562 23.768 17.7222 23.043 18.1962C22.097 18.8132 20.93 20.3842 20.31 21.6312C19.635 22.9902 20.334 24.5542 21.028 25.6182C20.434 25.0552 19.845 24.6402 19.373 24.3572C18.88 24.0622 18.243 24.3572 18.154 24.9262C17.974 26.0742 17.837 27.9342 18.45 29.4692C18.931 30.6742 20.041 31.1212 21.031 31.2662C20.135 31.3812 19.243 31.5502 18.74 31.7172C18.014 31.9592 17.76 32.8612 18.268 33.4342C19.023 34.2872 20.83 35.3752 22.195 35.8132C22.231 35.8252 22.26 35.8322 22.295 35.8432C21.489 36.2362 20.801 36.6482 20.383 36.9972C19.844 37.4482 19.883 38.2952 20.467 38.6872C21.264 39.2212 22.95 39.8332 24.533 39.9332C24.387 40.1232 24.258 40.3072 24.166 40.4762C23.831 41.0882 24.226 41.8472 24.92 41.9192C26.163 42.0472 28.352 42.0742 30.004 41.4302C31.665 42.0732 33.88 42.0472 35.123 41.9192C35.817 41.8472 36.212 41.0882 35.877 40.4762C35.784 40.3072 35.653 40.1222 35.504 39.9312C37.078 39.8252 38.745 39.2172 39.537 38.6872C40.121 38.2962 40.161 37.4482 39.621 36.9972C39.203 36.6482 38.515 36.2362 37.709 35.8432C37.745 35.8322 37.773 35.8242 37.809 35.8132C39.174 35.3752 40.98 34.2872 41.736 33.4342H41.734Z" fill="white"/>
</g>
<defs>
<radialGradient id="paint0_radial_81_431" cx="0" cy="0" r="1" gradientUnits="userSpaceOnUse" gradientTransform="translate(30 30) rotate(90) scale(30)">
<stop stop-color="#F95801"/>
<stop offset="1" stop-color="#F95801" stop-opacity="0.345098"/>
</radialGradient>
<clipPath id="clip0_81_431">
<rect width="24" height="24" fill="white" transform="translate(18 18)"/>
</clipPath>
</defs>
</svg>
