<svg width="16" height="16" viewBox="0 0 16 16" fill="none" xmlns="http://www.w3.org/2000/svg">
<path d="M9.3335 4.66667V0.306667C9.9502 0.539557 10.5104 0.900874 10.9768 1.36667L13.2995 3.69067C13.7658 4.15659 14.1274 4.7166 14.3602 5.33333H10.0002C9.82335 5.33333 9.65378 5.2631 9.52876 5.13807C9.40374 5.01305 9.3335 4.84348 9.3335 4.66667ZM14.6668 6.99V12.6667C14.6658 13.5504 14.3142 14.3976 13.6894 15.0225C13.0645 15.6474 12.2172 15.9989 11.3335 16H4.66683C3.7831 15.9989 2.93587 15.6474 2.31098 15.0225C1.68608 14.3976 1.33455 13.5504 1.3335 12.6667V3.33333C1.33455 2.4496 1.68608 1.60237 2.31098 0.97748C2.93587 0.352588 3.7831 0.00105857 4.66683 0L7.67683 0C7.7855 0 7.89283 0.00866667 8.00016 0.016V4.66667C8.00016 5.1971 8.21088 5.70581 8.58595 6.08088C8.96102 6.45595 9.46973 6.66667 10.0002 6.66667H14.6508C14.6582 6.774 14.6668 6.88133 14.6668 6.99ZM9.3335 12.6667C9.3335 12.4899 9.26326 12.3203 9.13823 12.1953C9.01321 12.0702 8.84364 12 8.66683 12H5.3335C5.15669 12 4.98712 12.0702 4.86209 12.1953C4.73707 12.3203 4.66683 12.4899 4.66683 12.6667C4.66683 12.8435 4.73707 13.013 4.86209 13.1381C4.98712 13.2631 5.15669 13.3333 5.3335 13.3333H8.66683C8.84364 13.3333 9.01321 13.2631 9.13823 13.1381C9.26326 13.013 9.3335 12.8435 9.3335 12.6667ZM11.3335 10C11.3335 9.82319 11.2633 9.65362 11.1382 9.5286C11.0132 9.40357 10.8436 9.33333 10.6668 9.33333H5.3335C5.15669 9.33333 4.98712 9.40357 4.86209 9.5286C4.73707 9.65362 4.66683 9.82319 4.66683 10C4.66683 10.1768 4.73707 10.3464 4.86209 10.4714C4.98712 10.5964 5.15669 10.6667 5.3335 10.6667H10.6668C10.8436 10.6667 11.0132 10.5964 11.1382 10.4714C11.2633 10.3464 11.3335 10.1768 11.3335 10Z" fill="#3C495D"/>
</svg>
