<svg width="16" height="18" viewBox="0 0 16 18" fill="none" xmlns="http://www.w3.org/2000/svg">
<path d="M12.25 7.58326C10.9317 7.58326 9.83303 8.48892 9.51706 9.70826H8.00001V9.71125L7.99852 9.70976C6.04651 9.70976 4.46591 8.12983 4.45828 6.18056V6.06646C5.67845 5.75049 6.58328 4.65205 6.58328 3.33351C6.58328 1.76861 5.31467 0.5 3.75001 0.5C2.18536 0.5 0.916748 1.76861 0.916748 3.33326C0.916748 4.65184 1.82157 5.75024 3.04175 6.06621V11.9335C1.82157 12.2495 0.916748 13.3479 0.916748 14.6665C0.916748 16.2314 2.18536 17.5 3.75001 17.5C5.31467 17.5 6.58328 16.2314 6.58328 14.6667C6.58328 13.3481 5.67845 12.2497 4.45828 11.9337V9.63493C5.35821 10.5538 6.61113 11.125 7.99852 11.125L8.00001 11.1235V11.125H9.51706C9.83303 12.3446 10.9317 13.25 12.25 13.25C13.8147 13.25 15.0833 11.9814 15.0833 10.4167C15.0833 8.85208 13.8147 7.58326 12.25 7.58326Z" fill="#3C495D"/>
</svg>
