<svg width="18" height="18" viewBox="0 0 18 18" fill="none" xmlns="http://www.w3.org/2000/svg">
<g clip-path="url(#clip0_75_135)">
<path d="M10.4167 5.45833V0.825833C11.0719 1.07328 11.6671 1.45718 12.1627 1.95208L14.6306 4.42133C15.126 4.91637 15.5102 5.51138 15.7575 6.16667H11.125C10.9372 6.16667 10.757 6.09204 10.6242 5.9592C10.4913 5.82636 10.4167 5.64619 10.4167 5.45833ZM16.0834 7.92687V13.9583C16.0822 14.8973 15.7087 15.7975 15.0448 16.4614C14.3808 17.1254 13.4807 17.4989 12.5417 17.5H5.45835C4.51939 17.4989 3.61921 17.1254 2.95526 16.4614C2.29131 15.7975 1.91781 14.8973 1.91669 13.9583V4.04167C1.91781 3.1027 2.29131 2.20252 2.95526 1.53857C3.61921 0.874625 4.51939 0.501125 5.45835 0.5L8.65648 0.5C8.77194 0.5 8.88598 0.509208 9.00002 0.517V5.45833C9.00002 6.02192 9.2239 6.56242 9.62242 6.96094C10.0209 7.35945 10.5614 7.58333 11.125 7.58333H16.0664C16.0741 7.69737 16.0834 7.81142 16.0834 7.92687ZM10.4167 13.9583C10.4167 13.7705 10.3421 13.5903 10.2092 13.4575C10.0764 13.3246 9.89622 13.25 9.70835 13.25H6.16669C5.97883 13.25 5.79866 13.3246 5.66582 13.4575C5.53298 13.5903 5.45835 13.7705 5.45835 13.9583C5.45835 14.1462 5.53298 14.3264 5.66582 14.4592C5.79866 14.592 5.97883 14.6667 6.16669 14.6667H9.70835C9.89622 14.6667 10.0764 14.592 10.2092 14.4592C10.3421 14.3264 10.4167 14.1462 10.4167 13.9583ZM12.5417 11.125C12.5417 10.9371 12.4671 10.757 12.3342 10.6241C12.2014 10.4913 12.0212 10.4167 11.8334 10.4167H6.16669C5.97883 10.4167 5.79866 10.4913 5.66582 10.6241C5.53298 10.757 5.45835 10.9371 5.45835 11.125C5.45835 11.3129 5.53298 11.493 5.66582 11.6259C5.79866 11.7587 5.97883 11.8333 6.16669 11.8333H11.8334C12.0212 11.8333 12.2014 11.7587 12.3342 11.6259C12.4671 11.493 12.5417 11.3129 12.5417 11.125Z" fill="white"/>
</g>
<defs>
<clipPath id="clip0_75_135">
<rect width="17" height="17" fill="white" transform="translate(0.5 0.5)"/>
</clipPath>
</defs>
</svg>
