<svg width="17" height="16" viewBox="0 0 17 16" fill="none" xmlns="http://www.w3.org/2000/svg">
<path d="M12.5001 6.6666C11.2593 6.6666 10.2253 7.51898 9.92791 8.6666H8.5001V8.66941L8.49869 8.66801C6.6615 8.66801 5.17389 7.18102 5.1667 5.34641V5.23902C6.3151 4.94164 7.1667 3.90781 7.1667 2.66684C7.1667 1.19398 5.97271 0 4.5001 0C3.02748 0 1.8335 1.19398 1.8335 2.6666C1.8335 3.90762 2.6851 4.94141 3.8335 5.23879V10.761C2.6851 11.0584 1.8335 12.0922 1.8335 13.3332C1.8335 14.806 3.02748 16 4.5001 16C5.97271 16 7.1667 14.806 7.1667 13.3334C7.1667 12.0923 6.3151 11.0586 5.1667 10.7612V8.59758C6.01369 9.46238 7.19291 10 8.49869 10L8.5001 9.99859V10H9.92791C10.2253 11.1478 11.2593 12 12.5001 12C13.9727 12 15.1667 10.806 15.1667 9.3334C15.1667 7.86078 13.9727 6.6666 12.5001 6.6666Z" fill="white"/>
</svg>
